<svg width="14" height="14" xmlns="http://www.w3.org/2000/svg"><path d="M7 0C3.13 0 0 3.13 0 7s3.13 7 7 7 7-3.13 7-7-3.13-7-7-7zm.894 2.178c.273 0 .506.097.642.272.136.175.214.389.214.622 0 .584-.467 1.147-1.128 1.147h-.02c-.505 0-.835-.388-.835-.933 0-.486.389-1.108 1.127-1.108zm.856 7.836c-.972 1.07-2.178 1.711-2.644 1.711-.156 0-.312-.039-.428-.175-.117-.136-.175-.33-.175-.603 0-.214.039-.68.116-1.01l.7-3.034c.04-.175.059-.292.059-.35-.117.039-.661.428-.914.641l-.097.078-.273-.739.059-.058c.991-.914 2.178-1.653 2.722-1.653.156 0 .292.078.37.214.077.136.097.292.097.486 0 .214-.04.661-.098.953l-.777 3.13a1.468 1.468 0 0 0-.059.331v.078c.078-.02.623-.389.992-.72l.078-.077.291.641.04.059-.059.097z" fill="#fff"/></svg>