<svg width="17" height="14" xmlns="http://www.w3.org/2000/svg" xmlns:xlink="http://www.w3.org/1999/xlink"><use xlink:href="#path0_stroke" transform="translate(1 1)" fill="#2F2F29"/><use xlink:href="#path1_stroke" transform="translate(6.6 5)" fill="#2F2F29"/><defs><path id="path0_stroke" d="M1.156 12l-.031.499.031.001V12zM13.993.5c.362 0 .656.294.656.656h1c0-.914-.742-1.656-1.656-1.656v1zm.656.656v9.688h1V1.156h-1zm0 9.688a.657.657 0 0 1-.656.656v1c.914 0 1.656-.742 1.656-1.656h-1zm-.656.656H1.156v1h12.837v-1zm-12.806.001c-.392-.024-.687-.34-.687-.697h-1c0 .92.742 1.64 1.625 1.695l.062-.998zM.5 10.804V1.156h-1v9.648h1zm0-9.648C.5.794.794.5 1.156.5v-1C.242-.5-.5.242-.5 1.156h1zM1.156.5h12.837v-1H1.156v1z"/><path id="path1_stroke" d="M0 3.987h-.5a.5.5 0 0 0 .724.447L0 3.987zM0 0l.224-.447A.5.5 0 0 0-.5 0H0zm3.987 1.993l.223.448a.5.5 0 0 0 0-.895l-.223.447zM.5 3.987V0h-1v3.987h1zM-.224.447l3.987 1.994.447-.895L.224-.447l-.448.894zm3.987 1.1L-.224 3.538l.448.895L4.21 2.44l-.447-.895z"/></defs></svg>