<svg width="15" height="14" xmlns="http://www.w3.org/2000/svg" xmlns:xlink="http://www.w3.org/1999/xlink"><use xlink:href="#path0_stroke" transform="translate(1 1)" fill="#2F2F29"/><use xlink:href="#path1_stroke" transform="translate(3.5 3.8)" fill="#2F2F29"/><use xlink:href="#path2_stroke" transform="translate(3.5 5.9)" fill="#2F2F29"/><use xlink:href="#path3_stroke" transform="translate(9.5 8.1)" fill="#2F2F29"/><use xlink:href="#path4_stroke" transform="translate(9.5 8.1)" fill="#2F2F29"/><defs><path id="path0_stroke" d="M8.47 11.5H1.236v1h7.236v-1zm-7.235 0a.75.75 0 0 1-.735-.735h-1A1.75 1.75 0 0 0 1.235 12.5v-1zM.5 10.765v-9.6h-1v9.6h1zm0-9.6C.5.805.806.5 1.165.5v-1C.253-.5-.5.253-.5 1.165h1zM1.165.5h11.082v-1H1.165v1zm11.082 0c.36 0 .665.306.665.665h1c0-.912-.754-1.665-1.665-1.665v1zm.665.665v5.894h1V1.165h-1z"/><path id="path1_stroke" d="M0 .5h8.47v-1H0v1z"/><path id="path2_stroke" d="M0 .5h7.059v-1H0v1z"/><path id="path3_stroke" d="M-.354 4.588a.5.5 0 0 0 .708.707l-.708-.707zM5.295.354a.5.5 0 0 0-.707-.708l.707.708zM.354 5.294l4.94-4.94-.706-.708-4.942 4.942.708.707z"/><path id="path4_stroke" d="M4.941-.5H2.118v1H4.94v-1zm-2.823 0A2.624 2.624 0 0 0-.5 2.118h1C.5 1.229 1.23.5 2.118.5v-1zM-.5 2.118V4.94h1V2.118h-1z"/></defs></svg>