<svg width="14" height="13" xmlns="http://www.w3.org/2000/svg" xmlns:xlink="http://www.w3.org/1999/xlink"><use xlink:href="#path0_stroke" transform="translate(1 8.3)" fill="#2F2F29"/><use xlink:href="#path1_stroke" transform="translate(3.2 6.5)" fill="#2F2F29"/><use xlink:href="#path2_stroke" transform="translate(6.8)" fill="#2F2F29"/><defs><path id="path0_stroke" d="M-.5 0v2.646h1V0h-1zm0 2.646c0 .86.685 1.546 1.546 1.546v-1A.538.538 0 0 1 .5 2.646h-1zm1.546 1.546h9.6v-1h-9.6v1zm9.6 0c.86 0 1.546-.685 1.546-1.546h-1a.538.538 0 0 1-.546.546v1zm1.546-1.546V0h-1v2.646h1z"/><path id="path1_stroke" d="M3.692 3.692l-.353.354a.5.5 0 0 0 .707 0l-.354-.354zM-.354.354L3.34 4.046l.707-.707L.354-.354l-.708.708zm4.4 3.692L7.738.354l-.707-.708L3.34 3.34l.707.707z"/><path id="path2_stroke" d="M.5 10.154V0h-1v10.154h1z"/></defs></svg>