<svg width="13" height="14" xmlns="http://www.w3.org/2000/svg" xmlns:xlink="http://www.w3.org/1999/xlink"><use xlink:href="#path0_stroke" transform="translate(4.4 1)" fill="#2F2F29"/><use xlink:href="#path1_stroke" transform="translate(6.6 3.2)" fill="#2F2F29"/><use xlink:href="#path2_stroke" transform="translate(0 7)" fill="#2F2F29"/><defs><path id="path0_stroke" d="M.5 4.433v-3.42h-1v3.42h1zm0-3.42C.5.751.751.5 1.013.5v-1C.2-.5-.5.199-.5 1.013h1zM1.013.5h5.858v-1H1.013v1zm5.858 0c.303 0 .545.26.545.513h1C8.416.19 7.706-.5 6.87-.5v1zm.545.513v9.974h1V1.013h-1zm0 9.974a.52.52 0 0 1-.514.513v1a1.52 1.52 0 0 0 1.514-1.513h-1zm-.514.513H1.013v1h5.89v-1zm-5.889 0a.52.52 0 0 1-.513-.513h-1A1.52 1.52 0 0 0 1.013 12.5v-1zM.5 10.987V7.599h-1v3.388h1z"/><path id="path1_stroke" d="M3.8 3.8l.353.353a.5.5 0 0 0 0-.707l-.354.353zM.353 7.951l3.799-3.799-.707-.707-3.8 3.8.708.706zm3.799-4.506l-3.8-3.8-.707.708 3.8 3.799.707-.707z"/><path id="path2_stroke" d="M10.448-.5H0v1h10.448v-1z"/></defs></svg>