<svg width="12" height="9" xmlns="http://www.w3.org/2000/svg"><path d="M12 1.063a5.219 5.219 0 0 1-1.415.36c.51-.282.9-.725 1.08-1.257A5.242 5.242 0 0 1 10.1.72 2.549 2.549 0 0 0 8.302 0c-1.36 0-2.458 1.02-2.458 2.27 0 .178.024.35.066.521C3.866 2.697 2.056 1.794.84.415.63.753.502 1.141.502 1.556c0 .787.432 1.485 1.097 1.894a2.655 2.655 0 0 1-1.114-.282v.028c0 1.102.845 2.021 1.972 2.226a2.753 2.753 0 0 1-1.11.039c.312.903 1.223 1.562 2.296 1.578-.839.61-1.9.975-3.057.975A5.14 5.14 0 0 1 0 7.981 7.407 7.407 0 0 0 3.77 9c4.526 0 6.995-3.462 6.995-6.463 0-.1 0-.194-.006-.294A4.832 4.832 0 0 0 12 1.063z" fill="#fff"/></svg>